<mxfile host="Electron" agent="Mozilla/5.0 (Windows NT 10.0; Win64; x64) AppleWebKit/537.36 (KHTML, like Gecko) draw.io/24.7.8 Chrome/128.0.6613.36 Electron/32.0.1 Safari/537.36" version="24.7.8">
  <diagram name="Página-1" id="-2M1RqJU1n-WJ6L_9hIX">
    <mxGraphModel dx="2440" dy="776" grid="1" gridSize="10" guides="1" tooltips="1" connect="1" arrows="1" fold="1" page="1" pageScale="1" pageWidth="827" pageHeight="1169" math="0" shadow="0">
      <root>
        <mxCell id="0" />
        <mxCell id="1" parent="0" />
        <mxCell id="rgX_k4NKBUWvYTJjRwBB-11" value="N" style="text;html=1;align=center;verticalAlign=middle;whiteSpace=wrap;rounded=0;" parent="1" vertex="1">
          <mxGeometry x="-153" y="359" width="60" height="30" as="geometry" />
        </mxCell>
        <mxCell id="rgX_k4NKBUWvYTJjRwBB-12" value="M" style="text;html=1;align=center;verticalAlign=middle;whiteSpace=wrap;rounded=0;" parent="1" vertex="1">
          <mxGeometry x="174.5" y="365" width="60" height="30" as="geometry" />
        </mxCell>
        <mxCell id="rgX_k4NKBUWvYTJjRwBB-13" value="1" style="text;html=1;align=center;verticalAlign=middle;whiteSpace=wrap;rounded=0;" parent="1" vertex="1">
          <mxGeometry x="257" y="635" width="60" height="30" as="geometry" />
        </mxCell>
        <mxCell id="rgX_k4NKBUWvYTJjRwBB-14" value="N" style="text;html=1;align=center;verticalAlign=middle;whiteSpace=wrap;rounded=0;" parent="1" vertex="1">
          <mxGeometry x="257" y="419" width="60" height="30" as="geometry" />
        </mxCell>
        <mxCell id="16OqNDGJn4UHwA1QZE7o-1" value="PRODUCTES" style="rounded=1;whiteSpace=wrap;html=1;" vertex="1" parent="1">
          <mxGeometry x="214.5" y="359" width="120" height="60" as="geometry" />
        </mxCell>
        <mxCell id="16OqNDGJn4UHwA1QZE7o-2" value="" style="endArrow=none;html=1;rounded=0;entryX=0.061;entryY=0.723;entryDx=0;entryDy=0;entryPerimeter=0;" edge="1" parent="1" target="16OqNDGJn4UHwA1QZE7o-7">
          <mxGeometry width="50" height="50" relative="1" as="geometry">
            <mxPoint x="299.5" y="359" as="sourcePoint" />
            <mxPoint x="349.5" y="309" as="targetPoint" />
          </mxGeometry>
        </mxCell>
        <mxCell id="16OqNDGJn4UHwA1QZE7o-3" value="" style="endArrow=none;html=1;rounded=0;entryX=0.917;entryY=0.741;entryDx=0;entryDy=0;entryPerimeter=0;" edge="1" parent="1" target="16OqNDGJn4UHwA1QZE7o-5">
          <mxGeometry width="50" height="50" relative="1" as="geometry">
            <mxPoint x="244.5" y="359" as="sourcePoint" />
            <mxPoint x="199.5" y="309" as="targetPoint" />
          </mxGeometry>
        </mxCell>
        <mxCell id="16OqNDGJn4UHwA1QZE7o-4" value="" style="endArrow=none;html=1;rounded=0;entryX=0.5;entryY=0;entryDx=0;entryDy=0;exitX=0.5;exitY=1;exitDx=0;exitDy=0;" edge="1" parent="1" source="16OqNDGJn4UHwA1QZE7o-6" target="16OqNDGJn4UHwA1QZE7o-1">
          <mxGeometry width="50" height="50" relative="1" as="geometry">
            <mxPoint x="269.5" y="285" as="sourcePoint" />
            <mxPoint x="314.5" y="275" as="targetPoint" />
          </mxGeometry>
        </mxCell>
        <mxCell id="16OqNDGJn4UHwA1QZE7o-5" value="Nom" style="ellipse;whiteSpace=wrap;html=1;" vertex="1" parent="1">
          <mxGeometry x="79.5" y="245" width="120" height="80" as="geometry" />
        </mxCell>
        <mxCell id="16OqNDGJn4UHwA1QZE7o-6" value="Codi" style="ellipse;whiteSpace=wrap;html=1;" vertex="1" parent="1">
          <mxGeometry x="209.5" y="185" width="120" height="80" as="geometry" />
        </mxCell>
        <mxCell id="16OqNDGJn4UHwA1QZE7o-7" value="Preu Unitari" style="ellipse;whiteSpace=wrap;html=1;" vertex="1" parent="1">
          <mxGeometry x="349.5" y="245" width="120" height="80" as="geometry" />
        </mxCell>
        <mxCell id="16OqNDGJn4UHwA1QZE7o-8" value="PROVEÏDORS" style="rounded=1;whiteSpace=wrap;html=1;" vertex="1" parent="1">
          <mxGeometry x="214.5" y="665" width="120" height="60" as="geometry" />
        </mxCell>
        <mxCell id="16OqNDGJn4UHwA1QZE7o-9" value="Nom" style="ellipse;whiteSpace=wrap;html=1;" vertex="1" parent="1">
          <mxGeometry x="84.5" y="735" width="120" height="80" as="geometry" />
        </mxCell>
        <mxCell id="16OqNDGJn4UHwA1QZE7o-10" value="NIF" style="ellipse;whiteSpace=wrap;html=1;" vertex="1" parent="1">
          <mxGeometry x="214.5" y="775" width="120" height="80" as="geometry" />
        </mxCell>
        <mxCell id="16OqNDGJn4UHwA1QZE7o-11" value="Adreça" style="ellipse;whiteSpace=wrap;html=1;" vertex="1" parent="1">
          <mxGeometry x="349.5" y="735" width="120" height="80" as="geometry" />
        </mxCell>
        <mxCell id="16OqNDGJn4UHwA1QZE7o-12" value="" style="endArrow=none;html=1;rounded=0;exitX=0.25;exitY=1;exitDx=0;exitDy=0;entryX=1;entryY=0.5;entryDx=0;entryDy=0;" edge="1" parent="1" source="16OqNDGJn4UHwA1QZE7o-8" target="16OqNDGJn4UHwA1QZE7o-9">
          <mxGeometry width="50" height="50" relative="1" as="geometry">
            <mxPoint x="309.5" y="605" as="sourcePoint" />
            <mxPoint x="359.5" y="555" as="targetPoint" />
          </mxGeometry>
        </mxCell>
        <mxCell id="16OqNDGJn4UHwA1QZE7o-13" value="" style="endArrow=none;html=1;rounded=0;exitX=0.5;exitY=1;exitDx=0;exitDy=0;entryX=0.5;entryY=0;entryDx=0;entryDy=0;" edge="1" parent="1" source="16OqNDGJn4UHwA1QZE7o-8" target="16OqNDGJn4UHwA1QZE7o-10">
          <mxGeometry width="50" height="50" relative="1" as="geometry">
            <mxPoint x="259.5" y="735" as="sourcePoint" />
            <mxPoint x="208.5" y="775" as="targetPoint" />
          </mxGeometry>
        </mxCell>
        <mxCell id="16OqNDGJn4UHwA1QZE7o-14" value="" style="endArrow=none;html=1;rounded=0;exitX=0.789;exitY=1.012;exitDx=0;exitDy=0;entryX=0;entryY=0.5;entryDx=0;entryDy=0;exitPerimeter=0;" edge="1" parent="1" source="16OqNDGJn4UHwA1QZE7o-8" target="16OqNDGJn4UHwA1QZE7o-11">
          <mxGeometry width="50" height="50" relative="1" as="geometry">
            <mxPoint x="259.5" y="735" as="sourcePoint" />
            <mxPoint x="214.5" y="785" as="targetPoint" />
          </mxGeometry>
        </mxCell>
        <mxCell id="16OqNDGJn4UHwA1QZE7o-15" value="proveir" style="rhombus;whiteSpace=wrap;html=1;" vertex="1" parent="1">
          <mxGeometry x="234.5" y="495" width="80" height="80" as="geometry" />
        </mxCell>
        <mxCell id="16OqNDGJn4UHwA1QZE7o-16" value="" style="endArrow=none;html=1;rounded=0;exitX=0.5;exitY=0;exitDx=0;exitDy=0;entryX=0.5;entryY=1;entryDx=0;entryDy=0;" edge="1" parent="1" source="16OqNDGJn4UHwA1QZE7o-8" target="16OqNDGJn4UHwA1QZE7o-15">
          <mxGeometry width="50" height="50" relative="1" as="geometry">
            <mxPoint x="287" y="655" as="sourcePoint" />
            <mxPoint x="337" y="605" as="targetPoint" />
          </mxGeometry>
        </mxCell>
        <mxCell id="16OqNDGJn4UHwA1QZE7o-17" value="" style="endArrow=none;html=1;rounded=0;entryX=0.5;entryY=1;entryDx=0;entryDy=0;exitX=0.5;exitY=0;exitDx=0;exitDy=0;" edge="1" parent="1" source="16OqNDGJn4UHwA1QZE7o-15" target="16OqNDGJn4UHwA1QZE7o-1">
          <mxGeometry width="50" height="50" relative="1" as="geometry">
            <mxPoint x="277" y="545" as="sourcePoint" />
            <mxPoint x="327" y="495" as="targetPoint" />
          </mxGeometry>
        </mxCell>
        <mxCell id="16OqNDGJn4UHwA1QZE7o-18" value="CLIENTS" style="rounded=1;whiteSpace=wrap;html=1;" vertex="1" parent="1">
          <mxGeometry x="-263" y="359" width="120" height="60" as="geometry" />
        </mxCell>
        <mxCell id="16OqNDGJn4UHwA1QZE7o-19" value="comprar" style="rhombus;whiteSpace=wrap;html=1;" vertex="1" parent="1">
          <mxGeometry x="-3" y="349" width="80" height="80" as="geometry" />
        </mxCell>
        <mxCell id="16OqNDGJn4UHwA1QZE7o-20" value="" style="endArrow=none;html=1;rounded=0;entryX=0;entryY=0.5;entryDx=0;entryDy=0;exitX=1;exitY=0.5;exitDx=0;exitDy=0;" edge="1" parent="1" source="16OqNDGJn4UHwA1QZE7o-19" target="16OqNDGJn4UHwA1QZE7o-1">
          <mxGeometry width="50" height="50" relative="1" as="geometry">
            <mxPoint x="27" y="415" as="sourcePoint" />
            <mxPoint x="77" y="365" as="targetPoint" />
          </mxGeometry>
        </mxCell>
        <mxCell id="16OqNDGJn4UHwA1QZE7o-21" value="" style="endArrow=none;html=1;rounded=0;entryX=0;entryY=0.5;entryDx=0;entryDy=0;exitX=1;exitY=0.5;exitDx=0;exitDy=0;" edge="1" parent="1" source="16OqNDGJn4UHwA1QZE7o-18">
          <mxGeometry width="50" height="50" relative="1" as="geometry">
            <mxPoint x="-141" y="388.70000000000005" as="sourcePoint" />
            <mxPoint x="-3" y="388.70000000000005" as="targetPoint" />
          </mxGeometry>
        </mxCell>
        <mxCell id="16OqNDGJn4UHwA1QZE7o-22" value="Nom" style="ellipse;whiteSpace=wrap;html=1;" vertex="1" parent="1">
          <mxGeometry x="-413" y="180" width="120" height="80" as="geometry" />
        </mxCell>
        <mxCell id="16OqNDGJn4UHwA1QZE7o-23" value="Data de naixament" style="ellipse;whiteSpace=wrap;html=1;" vertex="1" parent="1">
          <mxGeometry x="-413" y="525" width="120" height="80" as="geometry" />
        </mxCell>
        <mxCell id="16OqNDGJn4UHwA1QZE7o-24" value="Adreça" style="ellipse;whiteSpace=wrap;html=1;" vertex="1" parent="1">
          <mxGeometry x="-413" y="435" width="120" height="80" as="geometry" />
        </mxCell>
        <mxCell id="16OqNDGJn4UHwA1QZE7o-25" value="DNI" style="ellipse;whiteSpace=wrap;html=1;" vertex="1" parent="1">
          <mxGeometry x="-413" y="349" width="120" height="80" as="geometry" />
        </mxCell>
        <mxCell id="16OqNDGJn4UHwA1QZE7o-26" value="Cognoms" style="ellipse;whiteSpace=wrap;html=1;" vertex="1" parent="1">
          <mxGeometry x="-413" y="265" width="120" height="80" as="geometry" />
        </mxCell>
        <mxCell id="16OqNDGJn4UHwA1QZE7o-27" value="" style="endArrow=none;html=1;rounded=0;entryX=0.25;entryY=0;entryDx=0;entryDy=0;exitX=1;exitY=0.5;exitDx=0;exitDy=0;" edge="1" parent="1" source="16OqNDGJn4UHwA1QZE7o-22" target="16OqNDGJn4UHwA1QZE7o-18">
          <mxGeometry width="50" height="50" relative="1" as="geometry">
            <mxPoint x="-133" y="465" as="sourcePoint" />
            <mxPoint x="-83" y="415" as="targetPoint" />
          </mxGeometry>
        </mxCell>
        <mxCell id="16OqNDGJn4UHwA1QZE7o-28" value="" style="endArrow=none;html=1;rounded=0;entryX=1;entryY=0.5;entryDx=0;entryDy=0;exitX=0;exitY=0.25;exitDx=0;exitDy=0;" edge="1" parent="1" source="16OqNDGJn4UHwA1QZE7o-18" target="16OqNDGJn4UHwA1QZE7o-26">
          <mxGeometry width="50" height="50" relative="1" as="geometry">
            <mxPoint x="-193" y="475" as="sourcePoint" />
            <mxPoint x="-133" y="614" as="targetPoint" />
          </mxGeometry>
        </mxCell>
        <mxCell id="16OqNDGJn4UHwA1QZE7o-29" value="" style="endArrow=none;html=1;rounded=0;entryX=1;entryY=0.5;entryDx=0;entryDy=0;exitX=0;exitY=0.5;exitDx=0;exitDy=0;" edge="1" parent="1" source="16OqNDGJn4UHwA1QZE7o-18" target="16OqNDGJn4UHwA1QZE7o-25">
          <mxGeometry width="50" height="50" relative="1" as="geometry">
            <mxPoint x="-223" y="495" as="sourcePoint" />
            <mxPoint x="-253" y="441" as="targetPoint" />
          </mxGeometry>
        </mxCell>
        <mxCell id="16OqNDGJn4UHwA1QZE7o-30" value="" style="endArrow=none;html=1;rounded=0;entryX=0;entryY=0.75;entryDx=0;entryDy=0;exitX=1;exitY=0.5;exitDx=0;exitDy=0;" edge="1" parent="1" source="16OqNDGJn4UHwA1QZE7o-24" target="16OqNDGJn4UHwA1QZE7o-18">
          <mxGeometry width="50" height="50" relative="1" as="geometry">
            <mxPoint x="-243" y="379" as="sourcePoint" />
            <mxPoint x="-273" y="325" as="targetPoint" />
          </mxGeometry>
        </mxCell>
        <mxCell id="16OqNDGJn4UHwA1QZE7o-31" value="" style="endArrow=none;html=1;rounded=0;entryX=0.25;entryY=1;entryDx=0;entryDy=0;exitX=1;exitY=0.5;exitDx=0;exitDy=0;" edge="1" parent="1" target="16OqNDGJn4UHwA1QZE7o-18">
          <mxGeometry width="50" height="50" relative="1" as="geometry">
            <mxPoint x="-293" y="566" as="sourcePoint" />
            <mxPoint x="-263" y="495" as="targetPoint" />
          </mxGeometry>
        </mxCell>
      </root>
    </mxGraphModel>
  </diagram>
</mxfile>
